Coordinates
version=1
nRows=17
nColumns=24
inDegrees=yes

Units are S.I. units (second, meters, Newtons, ...)
Angles are in degrees.

endheader
time	pelvis_tilt	pelvis_list	pelvis_rotation	pelvis_tx	pelvis_ty	pelvis_tz	hip_flexion_r	hip_adduction_r	hip_rotation_r	knee_angle_r	ankle_angle_r	subtalar_angle_r	mtp_angle_r	hip_flexion_l	hip_adduction_l	hip_rotation_l	knee_angle_l	ankle_angle_l	subtalar_angle_l	mtp_angle_l	lumbar_extension	lumbar_bending	lumbar_rotation
      4.12500000	     -8.51422110	    -10.50372371	      1.54661710	     -1.43184156	     -0.02647439	     -0.25777136	     15.90604353	     15.25167113	      0.92724329	    -20.23235060	      5.39738899	     -1.58220010	     11.08961971	     27.94398633	    -15.86846390	     -3.38989337	    -65.63369954	     -3.06240700	      5.18807630	      4.76710509	      8.61365667	      8.44817273	     -8.60265299
      4.13000000	     -8.39827171	    -10.19683434	      1.34954450	     -1.42549306	     -0.02533331	     -0.25710590	     14.92875343	     15.10716475	      1.59908826	    -19.65074207	      5.41592470	     -1.88679787	     10.60526170	     28.43826465	    -15.59684857	     -3.79868123	    -64.93011608	     -2.54843566	      5.40867151	      4.79064220	      8.46520871	      8.16917926	     -8.13072721
      4.13500000	     -8.31502095	     -9.89260490	      1.16349425	     -1.41918262	     -0.02428696	     -0.25649633	     14.01424526	     14.93110776	      2.14122546	    -19.09762001	      5.43738147	     -2.10689166	     10.18834446	     28.95011150	    -15.30919698	     -4.18820080	    -64.14924498	     -2.00361350	      5.68653649	      4.81519434	      8.35333412	      7.89105832	     -7.71099283
      4.14000000	     -8.23786231	     -9.60960584	      0.97541519	     -1.41290005	     -0.02331312	     -0.25591666	     13.11294418	     14.75529425	      2.62777800	    -18.53941812	      5.45431143	     -2.26024358	      9.83681460	     29.45415891	    -15.03858633	     -4.56784921	    -63.30312460	     -1.47197163	      5.99372387	      4.81257418	      8.24641751	      7.63922609	     -7.29170159
      4.14500000	     -8.17600282	     -9.34339341	      0.78392012	     -1.40665140	     -0.02241923	     -0.25536317	     12.24707951	     14.57412296	      3.01713965	    -17.99504628	      5.44986695	     -2.34877306	      9.56993709	     29.95451309	    -14.77876056	     -4.93677595	    -62.38427623	     -0.93684973	      6.32268903	      4.79864848	      8.15380766	      7.40622536	     -6.88615188
      4.15000000	     -8.10429329	     -9.10875890	      0.59278139	     -1.40039549	     -0.02159337	     -0.25484385	     11.36240771	     14.41027352	      3.39669741	    -17.42616108	      5.44596828	     -2.39549543	      9.35311473	     30.43068178	    -14.54963385	     -5.29370513	    -61.40912222	     -0.42764042	      6.65626309	      4.73079903	      8.05381447	      7.21431920	     -6.46926657
      4.15500000	     -8.00404059	     -8.92021871	      0.40447106	     -1.39416566	     -0.02083619	     -0.25438642	     10.43778425	     14.28103490	      3.79692090	    -16.83015552	      5.44144688	     -2.42517582	      9.15431200	     30.87029089	    -14.35957587	     -5.62795573	    -60.39235837	      0.08227308	      6.96084638	      4.54217742	      7.92189629	      7.08598696	     -6.04778807
      4.16000000	     -7.94219523	     -8.73709926	      0.21300406	     -1.38794363	     -0.02017583	     -0.25393167	      9.58142207	     14.13817086	      4.07741737	    -16.26699701	      5.42233078	     -2.38348234	      9.03665492	     31.32518218	    -14.16958125	     -5.94556125	    -59.30226333	      0.58880186	      7.28669828	      4.34918240	      7.82969769	      6.95460904	     -5.63656720
      4.16500000	     -8.00352063	     -8.61113484	      0.10811290	     -1.38178778	     -0.01975439	     -0.25370352	      8.89332099	     14.01279009	      4.21116416	    -15.72678887	      5.41386585	     -2.24420193	      8.99807489	     31.95423505	    -13.94397295	     -6.08213566	    -58.16742698	      0.97969592	      7.51612016	      4.31245718	      7.88282425	      6.89037953	     -5.37453134
      4.17000000	     -7.76590968	     -8.43401118	     -0.11425331	     -1.37549077	     -0.01904252	     -0.25324588	      7.81592322	     13.87554084	      4.59116764	    -15.12070782	      5.34041558	     -2.33029688	      8.90759849	     32.12897137	    -13.79713028	     -6.49642582	    -56.95976706	      1.65684608	      7.83931818	      3.55744804	      7.60052214	      6.77516609	     -4.90128897
      4.17500000	     -7.80886164	     -8.30181205	     -0.30181327	     -1.36932718	     -0.01875763	     -0.25291320	      7.13541473	     13.74897016	      4.72780507	    -14.64618765	      5.37005169	     -2.17229325	      8.91435929	     32.64600515	    -13.62759291	     -6.73762161	    -55.69394498	      2.12297651	      8.10691023	      3.42966841	      7.61864737	      6.71312326	     -4.51041700
      4.18000000	     -7.68418190	     -8.15885115	     -0.53472071	     -1.36313759	     -0.01826797	     -0.25255089	      6.24935719	     13.61172263	      4.96843388	    -14.14109563	      5.32207361	     -2.04023661	      8.92056410	     32.91372696	    -13.48626053	     -7.07575098	    -54.35157857	      2.59849300	      8.31134062	      2.91272205	      7.44644314	      6.65506423	     -4.02049163
      4.18500000	     -7.62218760	     -8.02507152	     -0.70867451	     -1.35693228	     -0.01796251	     -0.25230131	      5.44842056	     13.47072021	      5.15510406	    -13.65344593	      5.29356655	     -1.96595951	      8.93243592	     33.24836671	    -13.30342043	     -7.32420857	    -52.96946303	      3.14378508	      8.54359563	      2.30665690	      7.35433799	      6.59528467	     -3.63542901
      4.19000000	     -7.56010888	     -7.91071741	     -0.88620169	     -1.35082304	     -0.01772257	     -0.25214635	      4.67717435	     13.33879914	      5.37082386	    -13.21271644	      5.25895657	     -1.87165667	      8.95619916	     33.56658272	    -13.11697045	     -7.52091399	    -51.54151106	      3.72224684	      8.75982353	      1.55633551	      7.24035144	      6.57826903	     -3.22310860
      4.19500000	     -7.52973396	     -7.78942664	     -1.04519103	     -1.34466957	     -0.01757852	     -0.25199605	      3.95299709	     13.19648226	      5.54158902	    -12.79345829	      5.24746705	     -1.78945153	      8.97045575	     33.89266259	    -12.92108982	     -7.71899850	    -50.05452562	      4.28307641	      8.99598353	      0.79718500	      7.17243807	      6.54327902	     -2.84334947
      4.20000000	     -7.51100770	     -7.66123515	     -1.20289706	     -1.33853216	     -0.01748751	     -0.25187023	      3.26302026	     13.04320429	      5.69750398	    -12.40940973	      5.24165557	     -1.70437803	      8.97113834	     34.19828784	    -12.71144770	     -7.90305159	    -48.49889024	      4.81133287	      9.23971287	      0.06220477	      7.11461124	      6.50250967	     -2.46844213
      4.20500000	     -7.54004185	     -7.52528166	     -1.33676897	     -1.33234233	     -0.01750199	     -0.25174661	      2.63300902	     12.88044775	      5.79935636	    -12.03663399	      5.25066147	     -1.62963026	      8.95600920	     34.52969156	    -12.49183554	     -8.09587670	    -46.87782778	      5.26982416	      9.50296613	     -0.52713787	      7.12379252	      6.44023710	     -2.16247937
